<svg width="151" height="36" viewBox="0 0 151 36" fill="none" xmlns="http://www.w3.org/2000/svg">
<g clip-path="url(#clip0_156_85)">
<path d="M45.8709 4.60409L45.8047 4.57376L41.9162 14.5067C41.6039 15.305 41.7421 16.2234 42.2779 16.9045C43.3746 18.2977 44.0754 19.9623 44.3023 21.7161C44.5841 23.9272 44.0961 26.1855 42.9277 28.0758C41.7643 29.9679 39.9632 31.418 37.8583 32.1591C35.7507 32.8953 33.4399 32.8895 31.362 32.1478L30.403 31.7826C28.3865 30.9198 26.6986 29.3761 25.6515 27.4368C24.596 25.4701 24.2433 23.1858 24.659 21.0035C25.0699 18.8198 26.2319 16.8219 27.9303 15.3788C29.2813 14.236 30.9199 13.4788 32.6693 13.1892C33.5239 13.0475 34.2457 12.4624 34.5526 11.6621L38.376 1.70202L38.3051 1.67985L38.315 1.65448L34.6004 0.231445L34.2737 1.08427C34.1046 1.52498 34.1177 2.00506 34.3102 2.43614C34.4204 2.6826 34.5817 2.8961 34.7824 3.06497L31.8681 10.6812C29.7864 11.0907 27.8381 12.0284 26.2346 13.3925C24.0815 15.2207 22.6089 17.7547 22.0885 20.5272C21.5662 23.2972 22.0142 26.1934 23.3506 28.6831C24.6596 31.115 26.773 33.0595 29.2886 34.1518L29.3612 34.1877C29.4776 34.2428 29.7929 34.3883 30.203 34.547C30.802 34.7792 31.6788 35.0699 32.4517 35.1359C33.1686 35.2642 33.8943 35.3278 34.6193 35.3278C36.0097 35.3278 37.398 35.0936 38.7181 34.6307C41.3822 33.6924 43.6656 31.8552 45.1479 29.4569C46.6313 27.0582 47.2517 24.1938 46.8947 21.3917C46.6289 19.3028 45.8216 17.2973 44.5619 15.6028L47.5416 8.00141C47.8017 8.01307 48.0666 7.96291 48.3142 7.85499C48.7464 7.66657 49.0798 7.32066 49.2525 6.88112L49.5853 6.03062L45.8808 4.57784L45.8709 4.60409Z" fill="#D9D9D9"/>
<path d="M39.0231 17.829C39.9617 17.7878 40.69 16.9922 40.6489 16.0545C40.6077 15.1101 39.8124 14.3812 38.8735 14.4226C37.9338 14.4637 37.2063 15.2594 37.2478 16.2035C37.2889 17.1412 38.0834 17.8701 39.0231 17.829Z" fill="#D9D9D9"/>
<path d="M36.619 11.1446C36.0179 11.1712 35.5526 11.6798 35.5792 12.2842C35.6054 12.8838 36.1135 13.3502 36.7146 13.3237C37.3152 13.2974 37.781 12.7885 37.7547 12.1888C37.7282 11.5845 37.2195 11.1184 36.619 11.1446Z" fill="#D9D9D9"/>
<path d="M39.993 10.6596C40.5935 10.6334 41.0593 10.1244 41.033 9.52444C41.0065 8.9204 40.4981 8.45403 39.8973 8.48057C39.2962 8.50682 38.831 9.01577 38.8575 9.6201C38.8838 10.2198 39.3918 10.6859 39.993 10.6596Z" fill="#D9D9D9"/>
<path d="M30.0231 16.6674C29.1814 16.9626 28.4502 17.5136 27.9298 18.2383C27.5588 18.7552 27.2508 19.3245 27.002 19.9662C25.3565 24.2111 27.5845 29.0031 31.9656 30.4428C35.9077 31.7384 40.2326 29.7486 41.8221 25.9156C42.6846 23.8357 42.6026 21.6112 41.7842 19.7043L41.6011 19.7778C41.6011 19.7778 39.2418 20.859 35.936 17.8035C33.7961 15.8254 31.4275 16.1748 30.0231 16.6674ZM37.0085 27.777C38.3997 26.9221 39.814 25.6146 40.7199 23.6237C40.8211 23.4011 41.1595 23.5105 41.1116 23.7502C40.7894 25.3591 39.9149 27.6533 37.5475 28.778C36.902 29.0845 36.3998 28.1509 37.0085 27.777Z" fill="#D9D9D9"/>
<path d="M11.4003 31.1327C7.2018 31.1327 3.32965 28.708 3.32965 22.7449C3.32965 17.4046 6.69547 14.3572 10.8214 14.3572C15.1278 14.3572 16.7203 17.4372 16.7203 19.5013L19.8327 19.0425C19.7965 16.2251 17.4804 11.7363 10.7852 11.7363C4.48785 11.7363 0 16.0938 0 22.7449C0 29.6912 4.59635 33.7538 11.328 33.7538C16.6118 33.7538 19.326 30.6085 20.0499 29.6912L18.0593 27.8564C16.7926 29.429 14.5127 31.1327 11.4003 31.1327Z" fill="#D9D9D9"/>
<path d="M67.3889 31.3626C63.987 31.3626 63.9508 26.2841 60.8746 24.7115C64.0231 23.7612 66.231 21.6644 66.231 18.6501C66.231 13.9651 63.0463 11.9336 57.4726 11.9336H50.2705V33.558H53.564V25.2359H55.482C61.707 25.2359 59.7167 33.7545 66.4118 33.7545C67.4615 33.7545 68.3663 33.5906 68.3663 33.5906L68.1128 31.2973C68.1128 31.2973 67.8235 31.3626 67.3889 31.3626ZM57.0024 22.9096H53.564V14.4565H57.3277C60.9469 14.4565 62.9014 15.8653 62.9014 18.6501C62.9014 21.4025 60.368 22.9096 57.0024 22.9096Z" fill="#D9D9D9"/>
<path d="M71.9497 33.5579H86.7521V31.035H75.2432V23.5976H85.4854V21.0747H75.2432V14.4565H86.7521V11.9336H71.9497V33.5579Z" fill="#D9D9D9"/>
<path d="M95.0039 11.9336H91.7104V33.558H106.911V31.0351H95.0039V11.9336Z" fill="#D9D9D9"/>
<path d="M116.864 11.9336L107.888 33.558H111.29L113.498 28.1846H123.523L125.731 33.558H129.133L120.157 11.9336H116.864ZM114.511 25.7273L117.696 17.8967C117.949 17.2743 118.203 16.4877 118.456 15.636H118.528C118.782 16.4877 119.035 17.2743 119.289 17.8967L122.51 25.7273H114.511Z" fill="#D9D9D9"/>
<path d="M145.093 22.1886V22.1232C146.432 21.894 148.785 20.7798 148.785 17.7001C148.785 13.8665 145.745 11.9336 140.751 11.9336H132.716V33.558H141.908C147.192 33.558 150.015 31.3299 150.015 27.6605C150.015 23.8268 146.722 22.4837 145.093 22.1886ZM136.01 14.4565H140.316C143.899 14.4565 145.455 15.6031 145.455 17.8637C145.455 19.7642 143.899 21.2713 140.787 21.2713H136.01V14.4565ZM141.51 31.0351H136.01V23.4993H141.076C144.225 23.4993 146.722 24.6461 146.722 27.3653C146.722 29.8882 144.478 31.0351 141.51 31.0351Z" fill="#D9D9D9"/>
</g>
<defs>
<clipPath id="clip0_156_85">
<rect width="151" height="36" fill="white"/>
</clipPath>
</defs>
</svg>
